# xmcd CD database file
#
# Track frame offsets:
#	150
#	12362
#	26725
#	43776
#	56931
#	70066
#	82283
#	94707
#	106636
#	118074
#	130191
#	144123
#	156307
#	170916
#
# Disc length: 2579 seconds
#
# Revision: 0
# Processed by: cddbd v1.4PL0 Copyright (c) Steve Scherf et al.
# Submitted via: CDex 1.50beta10
#
DISCID=c30a110e
DTITLE=Aretha and Otis - Aretha and Otis (Soli 2)
DYEAR=2002
DGENRE=Blues
TTITLE0=(Sittin'on) the dock of the bay
TTITLE1=Wonderful world
TTITLE2=Try a little tenderness
TTITLE3=My girl
TTITLE4=I've been loving you too long (to stop now)
TTITLE5=I can't turn you loose
TTITLE6=Satisfaction
TTITLE7=Shake
TTITLE8=These arms of mine
TTITLE9=The happy song (dum-dum)
TTITLE10=Amen
TTITLE11=Fa.fa.fa.fa.fa (sad song)
TTITLE12=I've got dreams to remember
TTITLE13=Papa's go a brand nex bag (live)
EXTD=YEAR: 2002
EXTT0=
EXTT1=
EXTT2=
EXTT3=
EXTT4=
EXTT5=
EXTT6=
EXTT7=
EXTT8=
EXTT9=
EXTT10=
EXTT11=
EXTT12=
EXTT13=
PLAYORDER=
